# xmcd
# Track frame offsets:
# 225
# 16946
# 31627
# 45117
# 61908
# 77745
# 87332
# 103580
# 119213
# 136879
# 158601
# 172828
# 191381
# 210193
# 227241
#
# Disc length: 3263 seconds
# Revision: 0
# Processed by: cddbd v1.5PL3 Copyright (c) Steve Scherf et al.
# Submitted via: VisiTrax 2.9.9.209 - For more info visit www.synapsa.com
#
DISCID=ab0cbc0f
DTITLE=John James - Guitar Greats
DYEAR=1900
DGENRE=Blues
TTITLE0=Blue Moon Backstep
TTITLE1=Daphne
TTITLE2=Feelin' My Way
TTITLE3=Saturday Night Shuffle
TTITLE4=Lowdown Billy
TTITLE5=Lover
TTITLE6=Arkansas Traveller
TTITLE7=Candy Man
TTITLE8=Doc's Breakdown
TTITLE9=April Kisses
TTITLE10=Blind Arthur's Breakdown
TTITLE11=El Marabino/Aire de Joropo
TTITLE12=West Coast Blues
TTITLE13=All The Things You Are
TTITLE14=Estudio VI
EXTD=
EXTT0=
EXTT1=
EXTT2=
EXTT3=
EXTT4=
EXTT5=
EXTT6=
EXTT7=
EXTT8=
EXTT9=
EXTT10=
EXTT11=
EXTT12=
EXTT13=
EXTT14=
PLAYORDER=
